<svg width="1257" height="634" viewBox="0 0 1257 634" fill="none" xmlns="http://www.w3.org/2000/svg">
<path d="M377.238 6.25075C384.941 2.32397 394.059 2.32396 401.762 6.25075L463.53 37.7373C472.574 42.3475 478.268 51.6409 478.268 61.7922V119.208C478.268 129.359 472.574 138.652 463.53 143.263L401.762 174.749C394.059 178.676 384.941 178.676 377.238 174.749L315.47 143.263C306.426 138.652 300.732 129.359 300.732 119.208V61.7922C300.732 51.6409 306.426 42.3475 315.47 37.7373L377.238 6.25075Z" fill="url(#paint0_linear_63_54)" fill-opacity="0.5"/>
<path d="M401.308 7.14167L463.076 38.6282C471.785 43.0677 477.268 52.0169 477.268 61.7922V119.208C477.268 128.983 471.785 137.932 463.076 142.372L401.308 173.858C393.89 177.64 385.11 177.64 377.692 173.858L315.924 142.372C307.215 137.932 301.732 128.983 301.732 119.208V61.7922C301.732 52.0169 307.215 43.0677 315.924 38.6282L377.692 7.14167C385.11 3.36033 393.89 3.36032 401.308 7.14167Z" stroke="url(#paint1_linear_63_54)" stroke-opacity="0.8" stroke-width="2"/>
<path d="M90.2378 157.251C97.941 153.324 107.059 153.324 114.762 157.251L176.53 188.737C185.574 193.348 191.268 202.641 191.268 212.792V270.208C191.268 280.359 185.574 289.652 176.53 294.263L114.762 325.749C107.059 329.676 97.941 329.676 90.2378 325.749L28.4702 294.263C19.4262 289.652 13.7324 280.359 13.7324 270.208V212.792C13.7324 202.641 19.4262 193.348 28.4702 188.737L90.2378 157.251Z" fill="url(#paint2_linear_63_54)" fill-opacity="0.5"/>
<path d="M114.308 158.142L176.076 189.628C184.785 194.068 190.268 203.017 190.268 212.792V270.208C190.268 279.983 184.785 288.932 176.076 293.372L114.308 324.858C106.89 328.64 98.1099 328.64 90.692 324.858L28.9244 293.372C20.2154 288.932 14.7324 279.983 14.7324 270.208V212.792C14.7324 203.017 20.2153 194.068 28.9244 189.628L90.692 158.142C98.1099 154.36 106.89 154.36 114.308 158.142Z" stroke="url(#paint3_linear_63_54)" stroke-opacity="0.8" stroke-width="2"/>
<path d="M473.238 157.251C480.941 153.324 490.059 153.324 497.762 157.251L559.53 188.737C568.574 193.348 574.268 202.641 574.268 212.792V270.208C574.268 280.359 568.574 289.652 559.53 294.263L497.762 325.749C490.059 329.676 480.941 329.676 473.238 325.749L411.47 294.263C402.426 289.652 396.732 280.359 396.732 270.208V212.792C396.732 202.641 402.426 193.348 411.47 188.737L473.238 157.251Z" fill="url(#paint4_linear_63_54)" fill-opacity="0.5"/>
<path d="M497.308 158.142L559.076 189.628C567.785 194.068 573.268 203.017 573.268 212.792V270.208C573.268 279.983 567.785 288.932 559.076 293.372L497.308 324.858C489.89 328.64 481.11 328.64 473.692 324.858L411.924 293.372C403.215 288.932 397.732 279.983 397.732 270.208V212.792C397.732 203.017 403.215 194.068 411.924 189.628L473.692 158.142C481.11 154.36 489.89 154.36 497.308 158.142Z" stroke="url(#paint5_linear_63_54)" stroke-opacity="0.8" stroke-width="2"/>
<path d="M186.238 308.251C193.941 304.324 203.059 304.324 210.762 308.251L272.53 339.737C281.574 344.348 287.268 353.641 287.268 363.792V421.208C287.268 431.359 281.574 440.652 272.53 445.263L210.762 476.749C203.059 480.676 193.941 480.676 186.238 476.749L124.47 445.263C115.426 440.652 109.732 431.359 109.732 421.208V363.792C109.732 353.641 115.426 344.348 124.47 339.737L186.238 308.251Z" fill="url(#paint6_linear_63_54)" fill-opacity="0.5"/>
<path d="M210.308 309.142L272.076 340.628C280.785 345.068 286.268 354.017 286.268 363.792V421.208C286.268 430.983 280.785 439.932 272.076 444.372L210.308 475.858C202.89 479.64 194.11 479.64 186.692 475.858L124.924 444.372C116.215 439.932 110.732 430.983 110.732 421.208V363.792C110.732 354.017 116.215 345.068 124.924 340.628L186.692 309.142C194.11 305.36 202.89 305.36 210.308 309.142Z" stroke="url(#paint7_linear_63_54)" stroke-opacity="0.8" stroke-width="2"/>
<path d="M568.238 6.25075C575.941 2.32397 585.059 2.32396 592.762 6.25075L654.53 37.7373C663.574 42.3475 669.268 51.6409 669.268 61.7922V119.208C669.268 129.359 663.574 138.652 654.53 143.263L592.762 174.749C585.059 178.676 575.941 178.676 568.238 174.749L506.47 143.263C497.426 138.652 491.732 129.359 491.732 119.208V61.7922C491.732 51.6409 497.426 42.3475 506.47 37.7373L568.238 6.25075Z" fill="url(#paint8_linear_63_54)" fill-opacity="0.5"/>
<path d="M592.308 7.14167L654.076 38.6282C662.785 43.0677 668.268 52.0169 668.268 61.7922V119.208C668.268 128.983 662.785 137.932 654.076 142.372L592.308 173.858C584.89 177.64 576.11 177.64 568.692 173.858L506.924 142.372C498.215 137.932 492.732 128.983 492.732 119.208V61.7922C492.732 52.0169 498.215 43.0677 506.924 38.6282L568.692 7.14167C576.11 3.36033 584.89 3.36032 592.308 7.14167Z" stroke="url(#paint9_linear_63_54)" stroke-opacity="0.8" stroke-width="2"/>
<path d="M281.238 157.251C288.941 153.324 298.059 153.324 305.762 157.251L367.53 188.737C376.574 193.348 382.268 202.641 382.268 212.792V270.208C382.268 280.359 376.574 289.652 367.53 294.263L305.762 325.749C298.059 329.676 288.941 329.676 281.238 325.749L219.47 294.263C210.426 289.652 204.732 280.359 204.732 270.208V212.792C204.732 202.641 210.426 193.348 219.47 188.737L281.238 157.251Z" fill="url(#paint10_linear_63_54)" fill-opacity="0.5"/>
<path d="M305.308 158.142L367.076 189.628C375.785 194.068 381.268 203.017 381.268 212.792V270.208C381.268 279.983 375.785 288.932 367.076 293.372L305.308 324.858C297.89 328.64 289.11 328.64 281.692 324.858L219.924 293.372C211.215 288.932 205.732 279.983 205.732 270.208V212.792C205.732 203.017 211.215 194.068 219.924 189.628L281.692 158.142C289.11 154.36 297.89 154.36 305.308 158.142Z" stroke="url(#paint11_linear_63_54)" stroke-opacity="0.8" stroke-width="2"/>
<path d="M664.238 157.251C671.941 153.324 681.059 153.324 688.762 157.251L750.53 188.737C759.574 193.348 765.268 202.641 765.268 212.792V270.208C765.268 280.359 759.574 289.652 750.53 294.263L688.762 325.749C681.059 329.676 671.941 329.676 664.238 325.749L602.47 294.263C593.426 289.652 587.732 280.359 587.732 270.208V212.792C587.732 202.641 593.426 193.348 602.47 188.737L664.238 157.251Z" fill="url(#paint12_linear_63_54)" fill-opacity="0.5"/>
<path d="M688.308 158.142L750.076 189.628C758.785 194.068 764.268 203.017 764.268 212.792V270.208C764.268 279.983 758.785 288.932 750.076 293.372L688.308 324.858C680.89 328.64 672.11 328.64 664.692 324.858L602.924 293.372C594.215 288.932 588.732 279.983 588.732 270.208V212.792C588.732 203.017 594.215 194.068 602.924 189.628L664.692 158.142C672.11 154.36 680.89 154.36 688.308 158.142Z" stroke="url(#paint13_linear_63_54)" stroke-opacity="0.8" stroke-width="2"/>
<path d="M377.238 308.251C384.941 304.324 394.059 304.324 401.762 308.251L463.53 339.737C472.574 344.348 478.268 353.641 478.268 363.792V421.208C478.268 431.359 472.574 440.652 463.53 445.263L401.762 476.749C394.059 480.676 384.941 480.676 377.238 476.749L315.47 445.263C306.426 440.652 300.732 431.359 300.732 421.208V363.792C300.732 353.641 306.426 344.348 315.47 339.737L377.238 308.251Z" fill="url(#paint14_linear_63_54)" fill-opacity="0.5"/>
<path d="M401.308 309.142L463.076 340.628C471.785 345.068 477.268 354.017 477.268 363.792V421.208C477.268 430.983 471.785 439.932 463.076 444.372L401.308 475.858C393.89 479.64 385.11 479.64 377.692 475.858L315.924 444.372C307.215 439.932 301.732 430.983 301.732 421.208V363.792C301.732 354.017 307.215 345.068 315.924 340.628L377.692 309.142C385.11 305.36 393.89 305.36 401.308 309.142Z" stroke="url(#paint15_linear_63_54)" stroke-opacity="0.8" stroke-width="2"/>
<path d="M855.238 157.251C862.941 153.324 872.059 153.324 879.762 157.251L941.53 188.737C950.574 193.348 956.268 202.641 956.268 212.792V270.208C956.268 280.359 950.574 289.652 941.53 294.263L879.762 325.749C872.059 329.676 862.941 329.676 855.238 325.749L793.47 294.263C784.426 289.652 778.732 280.359 778.732 270.208V212.792C778.732 202.641 784.426 193.348 793.47 188.737L855.238 157.251Z" fill="url(#paint16_linear_63_54)" fill-opacity="0.5"/>
<path d="M879.308 158.142L941.076 189.628C949.785 194.068 955.268 203.017 955.268 212.792V270.208C955.268 279.983 949.785 288.932 941.076 293.372L879.308 324.858C871.89 328.64 863.11 328.64 855.692 324.858L793.924 293.372C785.215 288.932 779.732 279.983 779.732 270.208V212.792C779.732 203.017 785.215 194.068 793.924 189.628L855.692 158.142C863.11 154.36 871.89 154.36 879.308 158.142Z" stroke="url(#paint17_linear_63_54)" stroke-opacity="0.8" stroke-width="2"/>
<path d="M568.238 308.251C575.941 304.324 585.059 304.324 592.762 308.251L654.53 339.737C663.574 344.348 669.268 353.641 669.268 363.792V421.208C669.268 431.359 663.574 440.652 654.53 445.263L592.762 476.749C585.059 480.676 575.941 480.676 568.238 476.749L506.47 445.263C497.426 440.652 491.732 431.359 491.732 421.208V363.792C491.732 353.641 497.426 344.348 506.47 339.737L568.238 308.251Z" fill="url(#paint18_linear_63_54)" fill-opacity="0.5"/>
<path d="M592.308 309.142L654.076 340.628C662.785 345.068 668.268 354.017 668.268 363.792V421.208C668.268 430.983 662.785 439.932 654.076 444.372L592.308 475.858C584.89 479.64 576.11 479.64 568.692 475.858L506.924 444.372C498.215 439.932 492.732 430.983 492.732 421.208V363.792C492.732 354.017 498.215 345.068 506.924 340.628L568.692 309.142C576.11 305.36 584.89 305.36 592.308 309.142Z" stroke="url(#paint19_linear_63_54)" stroke-opacity="0.8" stroke-width="2"/>
<path d="M951.238 308.251C958.941 304.324 968.059 304.324 975.762 308.251L1037.53 339.737C1046.57 344.348 1052.27 353.641 1052.27 363.792V421.208C1052.27 431.359 1046.57 440.652 1037.53 445.263L975.762 476.749C968.059 480.676 958.941 480.676 951.238 476.749L889.47 445.263C880.426 440.652 874.732 431.359 874.732 421.208V363.792C874.732 353.641 880.426 344.348 889.47 339.737L951.238 308.251Z" fill="url(#paint20_linear_63_54)" fill-opacity="0.5"/>
<path d="M975.308 309.142L1037.08 340.628C1045.78 345.068 1051.27 354.017 1051.27 363.792V421.208C1051.27 430.983 1045.78 439.932 1037.08 444.372L975.308 475.858C967.89 479.64 959.11 479.64 951.692 475.858L889.924 444.372C881.215 439.932 875.732 430.983 875.732 421.208V363.792C875.732 354.017 881.215 345.068 889.924 340.628L951.692 309.142C959.11 305.36 967.89 305.36 975.308 309.142Z" stroke="url(#paint21_linear_63_54)" stroke-opacity="0.8" stroke-width="2"/>
<path d="M664.238 459.251C671.941 455.324 681.059 455.324 688.762 459.251L750.53 490.737C759.574 495.348 765.268 504.641 765.268 514.792V572.208C765.268 582.359 759.574 591.652 750.53 596.263L688.762 627.749C681.059 631.676 671.941 631.676 664.238 627.749L602.47 596.263C593.426 591.652 587.732 582.359 587.732 572.208V514.792C587.732 504.641 593.426 495.348 602.47 490.737L664.238 459.251Z" fill="url(#paint22_linear_63_54)" fill-opacity="0.5"/>
<path d="M688.308 460.142L750.076 491.628C758.785 496.068 764.268 505.017 764.268 514.792V572.208C764.268 581.983 758.785 590.932 750.076 595.372L688.308 626.858C680.89 630.64 672.11 630.64 664.692 626.858L602.924 595.372C594.215 590.932 588.732 581.983 588.732 572.208V514.792C588.732 505.017 594.215 496.068 602.924 491.628L664.692 460.142C672.11 456.36 680.89 456.36 688.308 460.142Z" stroke="url(#paint23_linear_63_54)" stroke-opacity="0.8" stroke-width="2"/>
<path d="M1046.24 157.251C1053.94 153.324 1063.06 153.324 1070.76 157.251L1132.53 188.737C1141.57 193.348 1147.27 202.641 1147.27 212.792V270.208C1147.27 280.359 1141.57 289.652 1132.53 294.263L1070.76 325.749C1063.06 329.676 1053.94 329.676 1046.24 325.749L984.47 294.263C975.426 289.652 969.732 280.359 969.732 270.208V212.792C969.732 202.641 975.426 193.348 984.47 188.737L1046.24 157.251Z" fill="url(#paint24_linear_63_54)" fill-opacity="0.5"/>
<path d="M1070.31 158.142L1132.08 189.628C1140.78 194.068 1146.27 203.017 1146.27 212.792V270.208C1146.27 279.983 1140.78 288.932 1132.08 293.372L1070.31 324.858C1062.89 328.64 1054.11 328.64 1046.69 324.858L984.924 293.372C976.215 288.932 970.732 279.983 970.732 270.208V212.792C970.732 203.017 976.215 194.068 984.924 189.628L1046.69 158.142C1054.11 154.36 1062.89 154.36 1070.31 158.142Z" stroke="url(#paint25_linear_63_54)" stroke-opacity="0.8" stroke-width="2"/>
<path d="M759.238 308.251C766.941 304.324 776.059 304.324 783.762 308.251L845.53 339.737C854.574 344.348 860.268 353.641 860.268 363.792V421.208C860.268 431.359 854.574 440.652 845.53 445.263L783.762 476.749C776.059 480.676 766.941 480.676 759.238 476.749L697.47 445.263C688.426 440.652 682.732 431.359 682.732 421.208V363.792C682.732 353.641 688.426 344.348 697.47 339.737L759.238 308.251Z" fill="url(#paint26_linear_63_54)" fill-opacity="0.5"/>
<path d="M783.308 309.142L845.076 340.628C853.785 345.068 859.268 354.017 859.268 363.792V421.208C859.268 430.983 853.785 439.932 845.076 444.372L783.308 475.858C775.89 479.64 767.11 479.64 759.692 475.858L697.924 444.372C689.215 439.932 683.732 430.983 683.732 421.208V363.792C683.732 354.017 689.215 345.068 697.924 340.628L759.692 309.142C767.11 305.36 775.89 305.36 783.308 309.142Z" stroke="url(#paint27_linear_63_54)" stroke-opacity="0.8" stroke-width="2"/>
<path d="M1142.24 308.251C1149.94 304.324 1159.06 304.324 1166.76 308.251L1228.53 339.737C1237.57 344.348 1243.27 353.641 1243.27 363.792V421.208C1243.27 431.359 1237.57 440.652 1228.53 445.263L1166.76 476.749C1159.06 480.676 1149.94 480.676 1142.24 476.749L1080.47 445.263C1071.43 440.652 1065.73 431.359 1065.73 421.208V363.792C1065.73 353.641 1071.43 344.348 1080.47 339.737L1142.24 308.251Z" fill="url(#paint28_linear_63_54)" fill-opacity="0.5"/>
<path d="M1166.31 309.142L1228.08 340.628C1236.78 345.068 1242.27 354.017 1242.27 363.792V421.208C1242.27 430.983 1236.78 439.932 1228.08 444.372L1166.31 475.858C1158.89 479.64 1150.11 479.64 1142.69 475.858L1080.92 444.372C1072.22 439.932 1066.73 430.983 1066.73 421.208V363.792C1066.73 354.017 1072.22 345.068 1080.92 340.628L1142.69 309.142C1150.11 305.36 1158.89 305.36 1166.31 309.142Z" stroke="url(#paint29_linear_63_54)" stroke-opacity="0.8" stroke-width="2"/>
<path d="M855.238 459.251C862.941 455.324 872.059 455.324 879.762 459.251L941.53 490.737C950.574 495.348 956.268 504.641 956.268 514.792V572.208C956.268 582.359 950.574 591.652 941.53 596.263L879.762 627.749C872.059 631.676 862.941 631.676 855.238 627.749L793.47 596.263C784.426 591.652 778.732 582.359 778.732 572.208V514.792C778.732 504.641 784.426 495.348 793.47 490.737L855.238 459.251Z" fill="url(#paint30_linear_63_54)" fill-opacity="0.5"/>
<path d="M879.308 460.142L941.076 491.628C949.785 496.068 955.268 505.017 955.268 514.792V572.208C955.268 581.983 949.785 590.932 941.076 595.372L879.308 626.858C871.89 630.64 863.11 630.64 855.692 626.858L793.924 595.372C785.215 590.932 779.732 581.983 779.732 572.208V514.792C779.732 505.017 785.215 496.068 793.924 491.628L855.692 460.142C863.11 456.36 871.89 456.36 879.308 460.142Z" stroke="url(#paint31_linear_63_54)" stroke-opacity="0.8" stroke-width="2"/>
<defs>
<linearGradient id="paint0_linear_63_54" x1="389.745" y1="-23.5528" x2="388.995" y2="180.998" gradientUnits="userSpaceOnUse">
<stop stop-color="#021E3E"/>
<stop offset="1" stop-color="#2D4260"/>
</linearGradient>
<linearGradient id="paint1_linear_63_54" x1="389.5" y1="0" x2="389.5" y2="181" gradientUnits="userSpaceOnUse">
<stop stop-color="white"/>
<stop offset="0.390625" stop-color="white" stop-opacity="0"/>
</linearGradient>
<linearGradient id="paint2_linear_63_54" x1="102.745" y1="127.447" x2="101.995" y2="331.998" gradientUnits="userSpaceOnUse">
<stop stop-color="#021E3E"/>
<stop offset="1" stop-color="#2D4260"/>
</linearGradient>
<linearGradient id="paint3_linear_63_54" x1="102.5" y1="151" x2="102.5" y2="332" gradientUnits="userSpaceOnUse">
<stop stop-color="white"/>
<stop offset="0.390625" stop-color="white" stop-opacity="0"/>
</linearGradient>
<linearGradient id="paint4_linear_63_54" x1="485.745" y1="127.447" x2="484.995" y2="331.998" gradientUnits="userSpaceOnUse">
<stop stop-color="#021E3E"/>
<stop offset="1" stop-color="#2D4260"/>
</linearGradient>
<linearGradient id="paint5_linear_63_54" x1="485.5" y1="151" x2="485.5" y2="332" gradientUnits="userSpaceOnUse">
<stop stop-color="white"/>
<stop offset="0.390625" stop-color="white" stop-opacity="0"/>
</linearGradient>
<linearGradient id="paint6_linear_63_54" x1="198.745" y1="278.447" x2="197.995" y2="482.998" gradientUnits="userSpaceOnUse">
<stop stop-color="#021E3E"/>
<stop offset="1" stop-color="#2D4260"/>
</linearGradient>
<linearGradient id="paint7_linear_63_54" x1="198.5" y1="302" x2="198.5" y2="483" gradientUnits="userSpaceOnUse">
<stop stop-color="white"/>
<stop offset="0.390625" stop-color="white" stop-opacity="0"/>
</linearGradient>
<linearGradient id="paint8_linear_63_54" x1="580.745" y1="-23.5528" x2="579.995" y2="180.998" gradientUnits="userSpaceOnUse">
<stop stop-color="#021E3E"/>
<stop offset="1" stop-color="#2D4260"/>
</linearGradient>
<linearGradient id="paint9_linear_63_54" x1="580.5" y1="0" x2="580.5" y2="181" gradientUnits="userSpaceOnUse">
<stop stop-color="white"/>
<stop offset="0.390625" stop-color="white" stop-opacity="0"/>
</linearGradient>
<linearGradient id="paint10_linear_63_54" x1="293.745" y1="127.447" x2="292.995" y2="331.998" gradientUnits="userSpaceOnUse">
<stop stop-color="#021E3E"/>
<stop offset="1" stop-color="#2D4260"/>
</linearGradient>
<linearGradient id="paint11_linear_63_54" x1="293.5" y1="151" x2="293.5" y2="332" gradientUnits="userSpaceOnUse">
<stop stop-color="white"/>
<stop offset="0.390625" stop-color="white" stop-opacity="0"/>
</linearGradient>
<linearGradient id="paint12_linear_63_54" x1="676.745" y1="127.447" x2="675.995" y2="331.998" gradientUnits="userSpaceOnUse">
<stop stop-color="#021E3E"/>
<stop offset="1" stop-color="#2D4260"/>
</linearGradient>
<linearGradient id="paint13_linear_63_54" x1="676.5" y1="151" x2="676.5" y2="332" gradientUnits="userSpaceOnUse">
<stop stop-color="white"/>
<stop offset="0.390625" stop-color="white" stop-opacity="0"/>
</linearGradient>
<linearGradient id="paint14_linear_63_54" x1="389.745" y1="278.447" x2="388.995" y2="482.998" gradientUnits="userSpaceOnUse">
<stop stop-color="#021E3E"/>
<stop offset="1" stop-color="#2D4260"/>
</linearGradient>
<linearGradient id="paint15_linear_63_54" x1="389.5" y1="302" x2="389.5" y2="483" gradientUnits="userSpaceOnUse">
<stop stop-color="white"/>
<stop offset="0.390625" stop-color="white" stop-opacity="0"/>
</linearGradient>
<linearGradient id="paint16_linear_63_54" x1="867.745" y1="127.447" x2="866.995" y2="331.998" gradientUnits="userSpaceOnUse">
<stop stop-color="#021E3E"/>
<stop offset="1" stop-color="#2D4260"/>
</linearGradient>
<linearGradient id="paint17_linear_63_54" x1="867.5" y1="151" x2="867.5" y2="332" gradientUnits="userSpaceOnUse">
<stop stop-color="white"/>
<stop offset="0.390625" stop-color="white" stop-opacity="0"/>
</linearGradient>
<linearGradient id="paint18_linear_63_54" x1="580.745" y1="278.447" x2="579.995" y2="482.998" gradientUnits="userSpaceOnUse">
<stop stop-color="#021E3E"/>
<stop offset="1" stop-color="#2D4260"/>
</linearGradient>
<linearGradient id="paint19_linear_63_54" x1="580.5" y1="302" x2="580.5" y2="483" gradientUnits="userSpaceOnUse">
<stop stop-color="white"/>
<stop offset="0.390625" stop-color="white" stop-opacity="0"/>
</linearGradient>
<linearGradient id="paint20_linear_63_54" x1="963.745" y1="278.447" x2="962.995" y2="482.998" gradientUnits="userSpaceOnUse">
<stop stop-color="#021E3E"/>
<stop offset="1" stop-color="#2D4260"/>
</linearGradient>
<linearGradient id="paint21_linear_63_54" x1="963.5" y1="302" x2="963.5" y2="483" gradientUnits="userSpaceOnUse">
<stop stop-color="white"/>
<stop offset="0.390625" stop-color="white" stop-opacity="0"/>
</linearGradient>
<linearGradient id="paint22_linear_63_54" x1="676.745" y1="429.447" x2="675.995" y2="633.998" gradientUnits="userSpaceOnUse">
<stop stop-color="#021E3E"/>
<stop offset="1" stop-color="#2D4260"/>
</linearGradient>
<linearGradient id="paint23_linear_63_54" x1="676.5" y1="453" x2="676.5" y2="634" gradientUnits="userSpaceOnUse">
<stop stop-color="white"/>
<stop offset="0.390625" stop-color="white" stop-opacity="0"/>
</linearGradient>
<linearGradient id="paint24_linear_63_54" x1="1058.74" y1="127.447" x2="1057.99" y2="331.998" gradientUnits="userSpaceOnUse">
<stop stop-color="#021E3E"/>
<stop offset="1" stop-color="#2D4260"/>
</linearGradient>
<linearGradient id="paint25_linear_63_54" x1="1058.5" y1="151" x2="1058.5" y2="332" gradientUnits="userSpaceOnUse">
<stop stop-color="white"/>
<stop offset="0.390625" stop-color="white" stop-opacity="0"/>
</linearGradient>
<linearGradient id="paint26_linear_63_54" x1="771.745" y1="278.447" x2="770.995" y2="482.998" gradientUnits="userSpaceOnUse">
<stop stop-color="#021E3E"/>
<stop offset="1" stop-color="#2D4260"/>
</linearGradient>
<linearGradient id="paint27_linear_63_54" x1="771.5" y1="302" x2="771.5" y2="483" gradientUnits="userSpaceOnUse">
<stop stop-color="white"/>
<stop offset="0.390625" stop-color="white" stop-opacity="0"/>
</linearGradient>
<linearGradient id="paint28_linear_63_54" x1="1154.74" y1="278.447" x2="1153.99" y2="482.998" gradientUnits="userSpaceOnUse">
<stop stop-color="#021E3E"/>
<stop offset="1" stop-color="#2D4260"/>
</linearGradient>
<linearGradient id="paint29_linear_63_54" x1="1154.5" y1="302" x2="1154.5" y2="483" gradientUnits="userSpaceOnUse">
<stop stop-color="white"/>
<stop offset="0.390625" stop-color="white" stop-opacity="0"/>
</linearGradient>
<linearGradient id="paint30_linear_63_54" x1="867.745" y1="429.447" x2="866.995" y2="633.998" gradientUnits="userSpaceOnUse">
<stop stop-color="#021E3E"/>
<stop offset="1" stop-color="#2D4260"/>
</linearGradient>
<linearGradient id="paint31_linear_63_54" x1="867.5" y1="453" x2="867.5" y2="634" gradientUnits="userSpaceOnUse">
<stop stop-color="white"/>
<stop offset="0.390625" stop-color="white" stop-opacity="0"/>
</linearGradient>
</defs>
</svg>
