<svg width="333" height="139" viewBox="0 0 333 139" fill="none" xmlns="http://www.w3.org/2000/svg">
<path d="M212.15 1.25084C213.619 0.468897 215.381 0.468897 216.85 1.25084L245.192 16.339C246.823 17.2074 247.842 18.9047 247.842 20.7526V50.2474C247.842 52.0953 246.823 53.7926 245.192 54.661L216.85 69.7492C215.381 70.5311 213.619 70.5311 212.15 69.7492L183.808 54.661C182.177 53.7926 181.158 52.0953 181.158 50.2474V20.7526C181.158 18.9047 182.177 17.2074 183.808 16.339L212.15 1.25084Z" fill="url(#paint0_linear_67_17)"/>
<path d="M237.15 67.2508C238.619 66.4689 240.381 66.4689 241.85 67.2508L270.192 82.339C271.823 83.2074 272.842 84.9047 272.842 86.7526V116.247C272.842 118.095 271.823 119.793 270.192 120.661L241.85 135.749C240.381 136.531 238.619 136.531 237.15 135.749L208.808 120.661C207.177 119.793 206.158 118.095 206.158 116.247V86.7526C206.158 84.9047 207.177 83.2074 208.808 82.339L237.15 67.2508Z" fill="url(#paint1_linear_67_17)"/>
<path d="M284.15 13.2508C285.619 12.4689 287.381 12.4689 288.85 13.2508L317.192 28.339C318.823 29.2074 319.842 30.9047 319.842 32.7526V62.2474C319.842 64.0953 318.823 65.7926 317.192 66.661L288.85 81.7492C287.381 82.5311 285.619 82.5311 284.15 81.7492L255.808 66.661C254.177 65.7926 253.158 64.0953 253.158 62.2474V32.7526C253.158 30.9047 254.177 29.2074 255.808 28.339L284.15 13.2508Z" fill="url(#paint2_linear_67_17)"/>
<g filter="url(#filter0_d_67_17)">
<path d="M253.658 79.0503L286.5 61.5664L319.342 79.0503V113.95L286.5 131.434L253.658 113.95V79.0503Z" stroke="#123564" shape-rendering="crispEdges"/>
</g>
<g filter="url(#filter1_d_67_17)">
<path d="M261.658 44.0503L294.5 26.5664L327.342 44.0503V78.9497L294.5 96.4336L261.658 78.9497V44.0503Z" stroke="#123564" shape-rendering="crispEdges"/>
</g>
<g filter="url(#filter2_d_67_17)">
<path d="M226.492 43.3655L259.166 25.568L292.173 42.7366L292.508 77.6345L259.834 95.432L226.827 78.2634L226.492 43.3655Z" stroke="#123564" shape-rendering="crispEdges"/>
</g>
<path d="M17.8509 49.3906H42.3431V54.1953H22.6556V63.8047H39.4603V68.6094H22.6556V78.1953H42.3431V83H17.8509V49.3906ZM58.907 83L50.5867 62.1992H54.5906L60.8992 78.3906L67.2273 62.1992H71.2313L62.9109 83H58.907ZM96.6523 74.5625H82.8828V79.1523H96.6523V83H82.8828C82.362 83 81.8672 82.9023 81.3984 82.707C80.9297 82.4987 80.5195 82.2253 80.168 81.8867C79.8294 81.5352 79.556 81.125 79.3477 80.6562C79.1523 80.1875 79.0547 79.6862 79.0547 79.1523V66.0469C79.0547 65.513 79.1523 65.0117 79.3477 64.543C79.556 64.0742 79.8294 63.6706 80.168 63.332C80.5195 62.9805 80.9297 62.707 81.3984 62.5117C81.8672 62.3034 82.362 62.1992 82.8828 62.1992H92.8047C93.3385 62.1992 93.8398 62.3034 94.3086 62.5117C94.7773 62.707 95.181 62.9805 95.5195 63.332C95.8711 63.6706 96.1445 64.0742 96.3398 64.543C96.5482 65.0117 96.6523 65.513 96.6523 66.0469V74.5625ZM82.8828 66.0469V70.7148H92.8047V66.0469H82.8828ZM125.277 83H121.429V66.0469H110.706V83H106.878V62.1992H110.706V65.8711C110.732 65.3633 110.849 64.888 111.058 64.4453C111.266 63.9896 111.54 63.599 111.878 63.2734C112.23 62.9349 112.633 62.6745 113.089 62.4922C113.545 62.2969 114.033 62.1992 114.554 62.1992H121.429C121.963 62.1992 122.464 62.3034 122.933 62.5117C123.402 62.707 123.805 62.9805 124.144 63.332C124.495 63.6706 124.769 64.0742 124.964 64.543C125.172 65.0117 125.277 65.513 125.277 66.0469V83ZM134.272 62.1992H139.35V55.793H143.198V62.1992H150.034V66.0469H143.198V79.1523H150.034V83H143.198C142.677 83 142.182 82.9023 141.713 82.707C141.245 82.4987 140.834 82.2253 140.483 81.8867C140.131 81.5352 139.851 81.125 139.643 80.6562C139.448 80.1875 139.35 79.6862 139.35 79.1523V66.0469H134.272V62.1992ZM206.012 49.3906V83H201.208V68.6094H181.966V83H177.161V49.3906H181.966V63.8047H201.208V49.3906H206.012ZM222.155 62.1992V83H218.307V62.1992H222.155ZM218.112 54.1914H222.35V58.1953H218.112V54.1914ZM238.494 83L230.173 62.1992H234.177L240.486 78.3906L246.814 62.1992H250.818L242.497 83H238.494ZM276.239 74.5625H262.469V79.1523H276.239V83H262.469C261.949 83 261.454 82.9023 260.985 82.707C260.516 82.4987 260.106 82.2253 259.755 81.8867C259.416 81.5352 259.143 81.125 258.934 80.6562C258.739 80.1875 258.641 79.6862 258.641 79.1523V66.0469C258.641 65.513 258.739 65.0117 258.934 64.543C259.143 64.0742 259.416 63.6706 259.755 63.332C260.106 62.9805 260.516 62.707 260.985 62.5117C261.454 62.3034 261.949 62.1992 262.469 62.1992H272.391C272.925 62.1992 273.426 62.3034 273.895 62.5117C274.364 62.707 274.768 62.9805 275.106 63.332C275.458 63.6706 275.731 64.0742 275.926 64.543C276.135 65.0117 276.239 65.513 276.239 66.0469V74.5625ZM262.469 66.0469V70.7148H272.391V66.0469H262.469Z" fill="white"/>
<defs>
<filter id="filter0_d_67_17" x="250.158" y="61" width="72.684" height="78" filterUnits="userSpaceOnUse" color-interpolation-filters="sRGB">
<feFlood flood-opacity="0" result="BackgroundImageFix"/>
<feColorMatrix in="SourceAlpha" type="matrix" values="0 0 0 0 0 0 0 0 0 0 0 0 0 0 0 0 0 0 127 0" result="hardAlpha"/>
<feOffset dy="4"/>
<feGaussianBlur stdDeviation="1.5"/>
<feComposite in2="hardAlpha" operator="out"/>
<feColorMatrix type="matrix" values="0 0 0 0 0 0 0 0 0 0 0 0 0 0 0 0 0 0 0.25 0"/>
<feBlend mode="normal" in2="BackgroundImageFix" result="effect1_dropShadow_67_17"/>
<feBlend mode="normal" in="SourceGraphic" in2="effect1_dropShadow_67_17" result="shape"/>
</filter>
<filter id="filter1_d_67_17" x="258.158" y="26" width="72.684" height="78" filterUnits="userSpaceOnUse" color-interpolation-filters="sRGB">
<feFlood flood-opacity="0" result="BackgroundImageFix"/>
<feColorMatrix in="SourceAlpha" type="matrix" values="0 0 0 0 0 0 0 0 0 0 0 0 0 0 0 0 0 0 127 0" result="hardAlpha"/>
<feOffset dy="4"/>
<feGaussianBlur stdDeviation="1.5"/>
<feComposite in2="hardAlpha" operator="out"/>
<feColorMatrix type="matrix" values="0 0 0 0 0 0 0 0 0 0 0 0 0 0 0 0 0 0 0.25 0"/>
<feBlend mode="normal" in2="BackgroundImageFix" result="effect1_dropShadow_67_17"/>
<feBlend mode="normal" in="SourceGraphic" in2="effect1_dropShadow_67_17" result="shape"/>
</filter>
<filter id="filter2_d_67_17" x="222.99" y="25.0016" width="73.0208" height="77.9968" filterUnits="userSpaceOnUse" color-interpolation-filters="sRGB">
<feFlood flood-opacity="0" result="BackgroundImageFix"/>
<feColorMatrix in="SourceAlpha" type="matrix" values="0 0 0 0 0 0 0 0 0 0 0 0 0 0 0 0 0 0 127 0" result="hardAlpha"/>
<feOffset dy="4"/>
<feGaussianBlur stdDeviation="1.5"/>
<feComposite in2="hardAlpha" operator="out"/>
<feColorMatrix type="matrix" values="0 0 0 0 0 0 0 0 0 0 0 0 0 0 0 0 0 0 0.25 0"/>
<feBlend mode="normal" in2="BackgroundImageFix" result="effect1_dropShadow_67_17"/>
<feBlend mode="normal" in="SourceGraphic" in2="effect1_dropShadow_67_17" result="shape"/>
</filter>
<linearGradient id="paint0_linear_67_17" x1="215" y1="7" x2="215" y2="67.5" gradientUnits="userSpaceOnUse">
<stop offset="0.234375" stop-color="#0E1A2E"/>
<stop offset="1" stop-color="#1E314D"/>
</linearGradient>
<linearGradient id="paint1_linear_67_17" x1="240" y1="73" x2="240" y2="133.5" gradientUnits="userSpaceOnUse">
<stop offset="0.234375" stop-color="#0E1A2E"/>
<stop offset="1" stop-color="#1E314D"/>
</linearGradient>
<linearGradient id="paint2_linear_67_17" x1="287" y1="19" x2="287" y2="79.5" gradientUnits="userSpaceOnUse">
<stop offset="0.234375" stop-color="#0E1A2E"/>
<stop offset="1" stop-color="#1E314D"/>
</linearGradient>
</defs>
</svg>
